<svg xmlns="http://www.w3.org/2000/svg" width="640" height="640" viewBox="0 0 640 640">
  <defs>
    <linearGradient id="bg-batik-silk-scarf" x1="0" y1="0" x2="1" y2="1">
      <stop offset="0%" stop-color="#dbeafe"/>
      <stop offset="100%" stop-color="#1e40af22"/>
    </linearGradient>
  </defs>
  <rect width="640" height="640" fill="url(#bg-batik-silk-scarf)"/>
  <circle cx="320" cy="260" r="140" fill="#1e40af"/>
  <g transform="translate(224,164) scale(4)"><path d="M12.998 20H18.998V16H14.998V14H18.998V6H16.998V11L12.998 9.4V20ZM10.998 20V9.4L6.99805 11V6H4.99805V20H10.998ZM6.99805 4V3H16.998V4H19.998C20.5503 4 20.998 4.44772 20.998 5V21C20.998 21.5523 20.5503 22 19.998 22H3.99805C3.44576 22 2.99805 21.5523 2.99805 21V5C2.99805 4.44772 3.44576 4 3.99805 4H6.99805ZM11.998 8L15.498 5H8.49805L11.998 8Z" fill="#eff6ff"/></g>
  <text x="320" y="470" font-family="Helvetica, Arial, sans-serif" font-size="22" font-weight="600" letter-spacing="2" fill="#1e40af" text-anchor="middle">ACCESSORIES</text>
  <foreignObject x="60" y="490" width="520" height="120">
    <div xmlns="http://www.w3.org/1999/xhtml" style="font-family: Helvetica, Arial, sans-serif; font-size: 30px; font-weight: 600; color: #1e40af; text-align: center; line-height: 1.2;">Batik Silk Scarf</div>
  </foreignObject>
</svg>