<svg xmlns="http://www.w3.org/2000/svg" width="640" height="640" viewBox="0 0 640 640">
  <defs>
    <linearGradient id="bg-single-origin-ceylon-tea" x1="0" y1="0" x2="1" y2="1">
      <stop offset="0%" stop-color="#ecfccb"/>
      <stop offset="100%" stop-color="#3f621222"/>
    </linearGradient>
  </defs>
  <rect width="640" height="640" fill="url(#bg-single-origin-ceylon-tea)"/>
  <circle cx="320" cy="260" r="140" fill="#3f6212"/>
  <g transform="translate(224,164) scale(4)"><path d="M16 13V5H6V13C6 14.1046 6.89543 15 8 15H14C15.1046 15 16 14.1046 16 13ZM5 3H20C21.1046 3 22 3.89543 22 5V8C22 9.10457 21.1046 10 20 10H18V13C18 15.2091 16.2091 17 14 17H8C5.79086 17 4 15.2091 4 13V4C4 3.44772 4.44772 3 5 3ZM18 5V8H20V5H18ZM2 19H20V21H2V19Z" fill="#f7fee7"/></g>
  <text x="320" y="470" font-family="Helvetica, Arial, sans-serif" font-size="22" font-weight="600" letter-spacing="2" fill="#3f6212" text-anchor="middle">TEA</text>
  <foreignObject x="60" y="490" width="520" height="120">
    <div xmlns="http://www.w3.org/1999/xhtml" style="font-family: Helvetica, Arial, sans-serif; font-size: 30px; font-weight: 600; color: #3f6212; text-align: center; line-height: 1.2;">Single-Origin Ceylon Tea</div>
  </foreignObject>
</svg>